PathFileType	4	(X/Y/Z)	HSS_walk2.trc
DataRate	CameraRate	NumFrames	NumMarkers	Units	OrigDataRate	OrigDataStartFrame	OrigNumFrames
120.0	120.0	8	44	mm	120.0	616	984
Frame#	Time		R.Shoulder		Offset		L.Shoulder		R.Elbow		R.Wrist.Radial		R.Wrist		R.Hand		L.Elbow		L.Wrist.Radial		L.Wrist		L.Hand		R.Hip		V.Sacral		L.PSIS		L.Hip		R.Thigh.Upper		R.Thigh.Front		R.Thigh.Rear		X.Shell.Lower.Thigh.Right		R.Knee.Lateral		R.Shank.Upper		R.Shank.Front		R.Shank.Rear		X.Shell.Lower.Shank.Right		R.Ankle.Lateral		R.Heel		R.Toe		L.Thigh.Upper		L.Thigh.Front		L.Thigh.Rear		X.Shell.Lower.Thigh.Left		L.Knee.Lateral		L.Shank.Upper		L.Shank.Front		L.Shank.Rear		X.Shell.Lower.Shank.Left		L.Ankle.Lateral		L.Heel		L.Toe		R.Troc		L.Troc		R.PSIS		L.ASIS		R.ASIS
			X1	Y1	Z1	X2	Y2	Z2	X3	Y3	Z3	X4	Y4	Z4	X5	Y5	Z5	X6	Y6	Z6	X7	Y7	Z7	X8	Y8	Z8	X9	Y9	Z9	X10	Y10	Z10	X11	Y11	Z11	X12	Y12	Z12	X13	Y13	Z13	X14	Y14	Z14	X15	Y15	Z15	X16	Y16	Z16	X17	Y17	Z17	X18	Y18	Z18	X19	Y19	Z19	X20	Y20	Z20	X21	Y21	Z21	X22	Y22	Z22	X23	Y23	Z23	X24	Y24	Z24	X25	Y25	Z25	X26	Y26	Z26	X27	Y27	Z27	X28	Y28	Z28	X29	Y29	Z29	X30	Y30	Z30	X31	Y31	Z31	X32	Y32	Z32	X33	Y33	Z33	X34	Y34	Z34	X35	Y35	Z35	X36	Y36	Z36	X37	Y37	Z37	X38	Y38	Z38	X39	Y39	Z39	X40	Y40	Z40	X41	Y41	Z41	X42	Y42	Z42	X43	Y43	Z43	X44	Y44	Z44

616	5.12500	17.70092	1445.22498	-28.37578	-84.40749	1371.78894	-318.63016	40.70311	1473.56775	-391.75864	-84.00979	1097.70422	-16.32460	-27.98282	848.28088	10.39114	-79.41506	859.11774	62.89579	-62.70109	772.01398	61.88015	60.74066	1104.20471	-467.44775	264.37979	963.32874	-491.20578	296.59271	991.86383	-433.93076	344.79581	935.31335	-483.27158	57.15794	1019.21265	-78.14648	-66.32296	993.96808	-219.20331	-66.62175	997.67999	-261.73099	50.08522	1002.56335	-374.15628	191.94687	696.94452	-53.14253	233.49855	673.23401	-74.98910	182.51387	652.51208	-46.67863	217.22058	631.40680	-68.81708	188.95250	511.86258	-87.74866	199.95691	360.81451	-50.97835	228.14639	321.75043	-80.35316	170.45305	321.85620	-61.36456	195.86143	284.89160	-76.02142	195.84062	66.68041	-136.62540	150.81741	32.67207	-186.62276	349.49991	32.05252	-141.31082	71.56740	650.82141	-384.74457	92.10268	600.65863	-366.04483	38.35380	616.44946	-394.99725	64.30743	580.49829	-386.71909	-16.49006	473.56995	-365.02548	-180.90208	349.14771	-386.64487	-175.40988	311.24930	-373.83731	-226.91081	341.96045	-366.11737	-232.83185	303.97858	-370.74722	-334.16354	173.51331	-320.72546	-387.05624	195.43503	-264.80539	-295.27658	33.39336	-300.19791	98.10676	875.04749	-42.32819	43.77536	854.40088	-405.10907	-64.47015	1002.85315	-175.59142	111.55814	963.41858	-336.37390	119.07526	985.54999	-113.25117
617	5.13333	29.42165	1446.53979	-26.86098	-74.08504	1373.55139	-317.56137	50.99072	1475.58667	-390.15518	-69.35905	1097.85950	-14.71749	-9.59581	849.29456	10.97578	-60.89156	859.15936	63.79887	-43.17839	772.22235	62.24565	66.40881	1106.23267	-465.60553	266.09686	959.79901	-490.86566	299.43250	987.31970	-433.61826	345.56247	929.51788	-483.49173	67.46468	1020.63391	-77.11051	-55.22328	995.17706	-218.93935	-55.88235	998.84601	-261.32785	61.68981	1003.95294	-373.38940	200.29956	696.78448	-52.28467	241.49265	672.53461	-74.06056	190.49721	652.51459	-45.35543	224.87407	630.98279	-67.78097	195.65523	511.84732	-87.04916	204.39835	360.46735	-50.20274	232.29340	320.96240	-79.84477	174.38646	322.04193	-61.26964	199.37416	284.67950	-75.75169	196.06949	66.69018	-136.78058	150.79230	32.74506	-186.55252	349.73288	31.84470	-141.52969	87.28728	651.76385	-385.48276	109.18423	601.88599	-367.46552	54.52624	616.61462	-395.40472	81.43678	581.38068	-388.04108	2.88892	473.32468	-366.04745	-162.99295	352.98288	-386.30249	-158.23952	314.85480	-374.27765	-208.89236	346.37048	-365.20377	-215.75618	308.71332	-370.59512	-319.45279	180.10358	-320.81216	-369.25455	207.09410	-264.12143	-292.47574	37.07385	-299.64447	108.33082	875.61688	-41.02274	56.52963	854.81696	-404.15988	-53.70592	1003.91809	-175.18565	123.39454	964.67822	-333.91321	129.63640	987.03821	-111.60361
618	5.14167	40.95951	1447.84106	-25.62241	-63.81279	1375.10413	-316.14337	61.08905	1477.46326	-388.77820	-54.75260	1097.96521	-13.01872	9.43155	850.33685	12.09653	-41.91278	859.26483	65.20242	-22.94897	772.52924	62.71689	72.57529	1108.41125	-463.55588	267.60214	956.37817	-490.54843	301.97641	982.42773	-433.06851	346.12347	923.55481	-483.73743	78.02683	1021.83661	-76.05499	-44.65739	996.35956	-218.02713	-45.19340	1000.01093	-260.35785	72.66792	1005.26294	-372.35577	208.48184	696.21069	-51.23653	249.26944	671.37024	-73.12851	198.10725	652.20135	-44.36570	232.04033	630.13281	-66.42195	201.95638	511.93951	-86.56091	208.62740	360.32452	-49.63731	236.24944	320.50781	-79.27554	178.17790	322.31851	-61.13301	202.59570	284.65558	-75.53456	196.29007	66.75258	-136.83444	150.78256	32.82083	-186.47070	349.92502	31.66262	-141.72606	102.94495	652.87384	-386.29810	126.15527	603.35461	-369.04459	70.97697	617.16003	-396.00604	98.68876	582.33698	-389.24808	22.58023	473.47318	-367.07059	-144.06366	356.54297	-386.20807	-140.35138	318.33817	-374.58145	-190.05408	350.99753	-364.98434	-197.80385	313.46997	-370.70187	-305.36215	188.41531	-320.53845	-349.76437	218.78479	-263.59128	-287.17410	42.01933	-299.26389	118.37569	876.08759	-40.34251	68.55972	855.21216	-401.95047	-42.94994	1004.98816	-174.25378	134.22685	965.82977	-332.53665	140.23976	988.20618	-110.26200
619	5.15000	52.24557	1449.03101	-24.33905	-54.23969	1376.49158	-314.57513	70.96375	1479.17944	-387.62289	-39.82205	1097.97449	-11.07322	28.86390	851.18982	13.15950	-22.62604	859.23633	66.26900	-2.39477	772.75409	63.36363	78.37263	1110.31396	-461.82336	268.92847	953.07166	-490.42725	304.13330	977.48846	-432.67270	346.20502	917.38141	-483.77365	88.73706	1022.66803	-75.06436	-34.11630	997.36334	-216.78009	-34.81096	1000.98016	-259.09589	82.80981	1006.45251	-371.51859	216.80254	695.80963	-50.51482	257.22391	670.28882	-72.13419	205.57114	652.06555	-43.58984	239.32452	629.30951	-65.48851	207.69057	511.91144	-85.91780	212.75607	360.08047	-49.24764	239.77531	319.92004	-78.54248	181.71028	322.53690	-60.77822	205.68874	284.62094	-75.11895	196.43861	66.85310	-136.88335	150.73293	32.87675	-186.45186	350.02817	31.49961	-141.85080	118.82825	654.24219	-387.00909	143.23792	605.07397	-370.29431	87.42511	618.04077	-396.46063	116.01808	583.68054	-390.57745	42.63638	473.76889	-368.11285	-124.94695	360.14941	-386.73193	-122.10152	321.76843	-375.20572	-170.92072	355.52289	-364.66129	-179.65111	318.25439	-370.47247	-290.35068	197.09177	-320.17676	-330.37228	229.14223	-261.96542	-278.85767	48.09098	-299.07364	128.60245	876.57581	-39.62646	80.03272	855.56152	-400.92667	-32.37904	1006.11230	-172.89580	144.20966	967.18610	-332.05743	151.09500	988.93115	-108.68687
620	5.15833	63.68267	1450.40112	-23.27366	-44.19955	1377.75000	-312.85562	80.50602	1480.58057	-386.71851	-25.05839	1097.81384	-9.14335	44.18836	852.16425	10.39508	-2.97248	859.14075	67.40147	18.63970	773.16296	64.11916	84.20078	1112.02039	-460.47552	270.02295	949.81073	-490.53622	305.78726	972.52484	-432.34286	346.14993	911.29712	-483.57327	99.37975	1023.30182	-74.20483	-23.89375	998.38208	-215.44539	-24.50769	1001.97565	-257.59180	92.44634	1007.56055	-370.59711	224.79703	695.66907	-50.04774	265.13132	669.58038	-71.13812	213.02625	652.05548	-43.07560	246.61346	628.78992	-64.63683	213.41403	511.68893	-85.51504	216.63838	359.61673	-48.89383	243.20772	319.18912	-78.27681	185.27635	322.56845	-60.63671	208.79564	284.33249	-74.94114	196.44159	66.94469	-136.96556	150.66629	32.90176	-186.44304	350.07153	31.39978	-141.94815	134.73347	655.92139	-387.85437	160.12125	607.08459	-371.54675	103.89075	619.11542	-396.98560	133.15735	585.31665	-391.64783	62.99409	474.49472	-369.06677	-105.80631	363.95642	-387.08975	-103.57673	325.38507	-375.52539	-151.62578	360.35358	-364.71967	-161.12065	323.17352	-370.29059	-274.15283	204.69165	-318.77603	-311.11267	237.35013	-258.62027	-266.32944	55.17174	-301.59793	138.89717	876.88397	-38.65000	91.04553	856.09210	-399.54355	-21.82431	1007.26483	-171.51273	154.52905	968.60059	-331.12592	161.09328	989.59863	-108.38322
621	5.16667	74.77633	1451.44141	-22.20471	-34.40850	1378.92615	-311.02454	90.07147	1481.84106	-385.92108	-10.24046	1097.61987	-7.19462	63.85368	853.17828	11.12259	17.04369	859.14209	68.44737	40.30529	773.52319	64.82510	90.03435	1113.59314	-459.14215	271.22659	946.68848	-490.71164	307.24835	967.39136	-432.23117	345.69009	905.27234	-483.50397	110.32868	1023.85596	-73.14350	-13.86584	999.43640	-213.79057	-14.36403	1002.94293	-256.09247	101.49683	1008.48511	-369.70721	232.78575	695.61102	-49.60898	273.08374	668.96881	-70.77978	220.32568	652.10284	-42.70336	253.81361	628.51038	-64.20212	219.03664	511.53195	-85.27942	220.52332	359.29599	-48.69698	246.60095	318.56213	-78.12955	188.58685	322.78366	-60.51779	211.49855	284.11301	-74.77356	196.50041	67.03604	-137.11288	150.61652	32.96130	-186.47159	350.16104	31.31981	-142.07465	150.33255	657.90570	-388.34909	177.04494	609.70630	-372.70572	120.42210	620.60724	-397.63846	150.22089	587.31641	-392.73770	83.46236	475.71301	-369.99454	-86.08402	367.60403	-386.21640	-84.86835	329.40906	-375.14969	-132.21875	365.42395	-364.28406	-142.38393	328.36673	-369.47113	-257.53110	212.16429	-316.67526	-292.57224	243.18236	-253.57660	-249.91176	61.68349	-305.93845	148.76212	876.68237	-38.02806	101.59702	857.01038	-398.58215	-11.34510	1008.35486	-170.00737	164.83406	970.15790	-330.26624	171.60733	990.18433	-107.57726
622	5.17500	85.80049	1452.41467	-21.11720	-24.76879	1380.25220	-309.40714	99.39115	1482.91406	-385.35608	4.63241	1097.24573	-4.99466	83.05090	854.20532	11.88486	37.40353	859.05621	69.53876	62.58463	774.13190	65.76287	95.81784	1115.09900	-458.04898	272.03348	943.70050	-491.19748	308.26196	962.42090	-431.82117	345.06592	899.14648	-483.08765	121.04019	1024.38379	-72.08166	-4.11996	1000.17999	-212.24898	-4.54462	1003.72943	-254.36086	109.85695	1009.43536	-369.66217	240.88130	695.57605	-49.46208	280.66254	668.42505	-70.48587	227.80505	652.15326	-42.72487	260.92590	628.02905	-63.81082	224.55656	511.41867	-85.14460	224.04770	358.97150	-48.46298	249.68156	317.94821	-77.88635	191.78029	322.86426	-60.45601	214.25154	283.92081	-74.67327	196.72684	67.06326	-137.25626	150.60124	33.05555	-186.48431	350.34531	31.37603	-142.18465	166.08540	660.34949	-389.13803	193.80048	612.55988	-373.87701	136.94969	622.56586	-398.46094	167.56964	589.79321	-393.87967	103.77980	477.36148	-370.96967	-66.90325	372.11963	-385.94650	-65.57381	333.90695	-373.75598	-112.73746	370.67581	-363.17755	-123.63106	333.86456	-368.01602	-239.96368	219.00757	-314.06320	-274.55936	247.12845	-248.52757	-230.12276	68.85935	-310.38257	158.53706	876.58289	-36.90952	112.01325	857.79980	-397.68967	-1.10581	1009.46771	-168.52576	174.78763	971.79663	-329.58810	182.03085	990.86029	-107.00378
623	5.18333	96.74422	1453.31348	-20.14049	-15.27565	1381.51807	-307.61365	108.49751	1483.90576	-384.84845	19.76807	1096.81653	-2.77288	103.69431	855.38409	12.40572	58.30695	858.99371	70.58417	85.28106	774.75293	66.67395	101.58046	1116.43640	-457.05179	272.96536	940.91406	-491.65817	309.09610	957.35266	-431.68024	344.05188	893.28607	-482.92175	132.20891	1025.07092	-71.04723	5.81071	1001.02112	-210.61476	5.28452	1004.60303	-252.61754	119.10456	1010.52899	-368.31961	248.34612	695.10315	-49.43253	287.98505	667.92792	-70.31673	235.02327	652.09210	-42.66317	267.82565	627.62793	-63.71238	229.96535	511.28842	-84.76121	227.50682	358.74609	-48.46119	252.66890	317.43390	-77.70523	194.79980	323.01321	-60.51600	216.94661	283.84482	-74.59850	196.79184	67.16963	-137.08627	150.59601	33.11421	-186.46683	350.40372	31.30964	-142.24144	181.83003	663.18365	-389.88669	210.70815	615.85114	-374.80432	153.53224	624.63519	-399.41519	184.82076	592.53754	-395.00757	123.80081	479.55923	-371.86270	-47.81952	377.11295	-385.11993	-46.84039	338.83026	-373.14404	-92.91307	375.84409	-360.96045	-104.60861	339.51669	-366.35248	-220.82961	224.80959	-311.39304	-255.88780	249.75325	-243.78072	-208.21785	75.48195	-315.17175	168.93994	876.38049	-34.99139	122.43748	858.54956	-396.06177	9.17075	1010.09418	-167.16597	184.35899	973.57629	-329.50989	192.28244	991.63147	-106.45316
